<?xml version="1.0" encoding="utf-8"?>
<!-- Generator: Adobe Illustrator 25.0.0, SVG Export Plug-In . SVG Version: 6.00 Build 0)  -->
<svg version="1.1" id="Layer_1" xmlns="http://www.w3.org/2000/svg" xmlns:xlink="http://www.w3.org/1999/xlink" x="0px" y="0px"
	 viewBox="0 0 223.94 249.74" style="enable-background:new 0 0 223.94 249.74;" xml:space="preserve">
<style type="text/css">
	.st0{fill:gray;}
</style>
<path class="st0" d="M209.64,51.97L126.27,3.83c-8.85-5.11-19.75-5.11-28.6,0L14.3,51.97C5.45,57.08,0,66.52,0,76.73V173
	c0,10.22,5.45,19.66,14.3,24.77l83.37,48.13c8.85,5.11,19.75,5.11,28.6,0l83.37-48.13c8.85-5.11,14.3-14.55,14.3-24.77V76.73
	C223.94,66.52,218.49,57.08,209.64,51.97z M217.48,171.94c0,8.56-4.57,16.48-11.99,20.77l-81.53,47.06
	c-7.42,4.29-16.56,4.29-23.98,0l-81.52-47.06c-7.43-4.29-12-12.21-12-20.77V77.8c0-8.57,4.57-16.49,12-20.77L99.98,9.96
	c7.42-4.28,16.56-4.28,23.98,0l81.53,47.07c7.42,4.28,11.99,12.2,11.99,20.77V171.94z"/>
<path class="st0" d="M134.89,56.53H89.34c-13.25,40.41-26.5,80.81-39.75,121.22h35.77c2.19-7.57,4.38-15.13,6.57-22.7
	c13.35-0.08,26.7-0.15,40.06-0.23l7.18,22.93h36.08C161.79,137.34,148.34,96.94,134.89,56.53z M99.65,130.29
	c4.13-13.89,8.26-27.77,12.39-41.66c4.28,13.84,8.56,27.67,12.84,41.5C116.47,130.19,108.06,130.24,99.65,130.29z"/>
</svg>
