<?xml version="1.0" encoding="utf-8"?>
<!-- Generator: Adobe Illustrator 25.0.0, SVG Export Plug-In . SVG Version: 6.00 Build 0)  -->
<svg version="1.1" id="Layer_1" xmlns="http://www.w3.org/2000/svg" xmlns:xlink="http://www.w3.org/1999/xlink" x="0px" y="0px"
	 viewBox="0 0 223.94 249.74" style="enable-background:new 0 0 223.94 249.74;" xml:space="preserve">
<style type="text/css">
	.st0{fill:gray;}
</style>
<path class="st0" d="M209.64,51.97L126.27,3.83c-8.85-5.11-19.75-5.11-28.6,0L14.3,51.97C5.45,57.08,0,66.52,0,76.73V173
	c0,10.22,5.45,19.66,14.3,24.77l83.37,48.13c8.85,5.11,19.75,5.11,28.6,0l83.37-48.13c8.85-5.11,14.3-14.55,14.3-24.77V76.73
	C223.94,66.52,218.49,57.08,209.64,51.97z M217.48,171.94c0,8.56-4.57,16.48-11.99,20.77l-81.53,47.06
	c-7.42,4.29-16.56,4.29-23.98,0l-81.52-47.06c-7.43-4.29-12-12.21-12-20.77V77.8c0-8.57,4.57-16.49,12-20.77L99.98,9.96
	c7.42-4.28,16.56-4.28,23.98,0l81.53,47.07c7.42,4.28,11.99,12.2,11.99,20.77V171.94z"/>
<path class="st0" d="M174.42,89.03c-1.26-1.94-24.51-36.51-63.44-35.16c-35.41,1.23-69.2,31.67-68.64,71.69
	c0.58,40.79,36.53,70.08,72.01,69.72c36.7-0.37,58.21-32.32,60.07-35.17c-9.94-5.81-19.87-11.62-29.81-17.43
	c-0.5,0.75-12.77,18.69-33.17,17.43c-17.38-1.08-33.19-15.63-33.78-34.09c-0.67-20.76,18.22-36.65,36.69-36.54
	c17.8,0.12,28.73,15.07,29.96,16.82C154.34,100.55,164.38,94.79,174.42,89.03z"/>
</svg>
