<svg id="Layer_1" data-name="Layer 1" xmlns="http://www.w3.org/2000/svg" viewBox="0 0 223.94 249.74"><defs><style>.cls-1{fill:gray;}</style></defs><path class="cls-1" d="M209.64,52,126.27,3.83a28.59,28.59,0,0,0-28.6,0L14.3,52A28.59,28.59,0,0,0,0,76.73V173a28.6,28.6,0,0,0,14.3,24.77L97.67,245.9a28.59,28.59,0,0,0,28.6,0l83.37-48.13A28.6,28.6,0,0,0,223.94,173V76.73A28.59,28.59,0,0,0,209.64,52Zm7.84,120a24,24,0,0,1-12,20.77L124,239.77a24,24,0,0,1-24,0L18.46,192.71a24,24,0,0,1-12-20.77V77.8A24,24,0,0,1,18.46,57L100,10a24,24,0,0,1,24,0L205.49,57a24,24,0,0,1,12,20.77Z"/><path class="cls-1" d="M172.29,89.82c-1.26-1.95-24.51-36.51-63.44-35.16-35.41,1.23-69.2,31.66-68.63,71.69.57,40.79,36.52,70.08,72,69.72,36.7-.38,58.22-32.32,60.07-35.17l-29.81-17.43c-.49.75-12.76,18.7-33.17,17.43-17.38-1.08-33.19-15.63-33.78-34.09-.67-20.76,18.22-36.65,36.69-36.54,17.79.12,28.72,15.07,30,16.82Z"/><path class="cls-1" d="M204.52,121.65v-9H200v-4.51h-9.25v4.51h-8.4v-4.51H173c0,1.53,0,3.06,0,4.59h-4.95v8.79h5.12v9.25h-5.12v9.17h5v4.35h8.79v-5h8.94v4.66h9.1v-4.35h4.66v-9.48H200v-8.41ZM191,130.13h-9v-8.59h9Z"/></svg>