<?xml version="1.0" encoding="utf-8"?>
<!-- Generator: Adobe Illustrator 25.0.0, SVG Export Plug-In . SVG Version: 6.00 Build 0)  -->
<svg version="1.1" id="Layer_1" xmlns="http://www.w3.org/2000/svg" xmlns:xlink="http://www.w3.org/1999/xlink" x="0px" y="0px"
	 viewBox="0 0 223.34 256" style="enable-background:new 0 0 223.34 256;" xml:space="preserve">
<style type="text/css">
	.st0{fill:gray;}
</style>
<path class="st0" d="M0,0l16.97,227.46l94.7,28.54l92.86-28.54L223.34,0H0z M181.6,76.13c-20.86,8.79-41.73,17.58-62.59,26.37
	c19.28,0.02,38.57,0.04,57.86,0.07c-2.55,28.63-5.1,57.27-7.65,85.91l-55.49,18.35l-60.99-16.97c-1.22-14.68-2.45-29.35-3.67-44.03
	h29.81c0.3,7.04,0.61,14.07,0.92,21.1c9.47,2.6,18.95,5.2,28.43,7.8l33.48-6.88c1.3-12.23,2.6-24.46,3.89-36.69H47.69
	c-0.76-8.79-1.52-17.58-2.29-26.37c21.33-9.4,42.65-18.8,63.98-28.2c-22.09-0.08-44.18-0.16-66.27-0.23
	c-1.23-9.25-2.45-18.5-3.67-27.75H181.6V76.13z"/>
</svg>
