<?xml version="1.0" encoding="utf-8"?>
<!-- Generator: Adobe Illustrator 25.0.0, SVG Export Plug-In . SVG Version: 6.00 Build 0)  -->
<svg version="1.1" id="Layer_1" xmlns="http://www.w3.org/2000/svg" xmlns:xlink="http://www.w3.org/1999/xlink" x="0px" y="0px"
	 viewBox="0 0 113.93 113.92" style="enable-background:new 0 0 113.93 113.92;" xml:space="preserve">
<style type="text/css">
	.st0{fill:gray;}
</style>
<path class="st0" d="M111.78,51.89L62.03,2.15c-2.86-2.86-7.51-2.86-10.37,0L41.33,12.48l13.1,13.1c3.05-1.03,6.54-0.34,8.96,2.09
	c2.44,2.44,3.12,5.96,2.07,9.02L78.1,49.32c3.06-1.05,6.58-0.37,9.02,2.07c3.41,3.41,3.41,8.93,0,12.35
	c-3.41,3.41-8.94,3.41-12.35,0c-2.56-2.57-3.2-6.33-1.9-9.49L61.09,42.46l0,30.99c0.83,0.41,1.62,0.96,2.31,1.65
	c3.41,3.41,3.41,8.93,0,12.35c-3.41,3.41-8.94,3.41-12.35,0c-3.41-3.41-3.41-8.94,0-12.35c0.84-0.84,1.82-1.48,2.86-1.9V41.92
	c-1.04-0.42-2.01-1.06-2.86-1.9c-2.58-2.58-3.21-6.37-1.88-9.54L36.26,17.55L2.15,51.66c-2.87,2.87-2.87,7.51,0,10.38l49.74,49.74
	c2.86,2.86,7.51,2.86,10.38,0l49.51-49.5C114.64,59.4,114.64,54.76,111.78,51.89"/>
</svg>
