<?xml version="1.0" encoding="utf-8"?>
<!-- Generator: Adobe Illustrator 25.0.0, SVG Export Plug-In . SVG Version: 6.00 Build 0)  -->
<svg version="1.1" id="Layer_1" xmlns="http://www.w3.org/2000/svg" xmlns:xlink="http://www.w3.org/1999/xlink" x="0px" y="0px"
	 viewBox="0 0 226.09 256" style="enable-background:new 0 0 226.09 256;" xml:space="preserve">
<style type="text/css">
	.st0{fill:gray;}
</style>
<path class="st0" d="M0,0l17.89,230.22L113.05,256l92.4-26.24L226.09,0H0z M181,74.9c-35.88,0.26-71.75,0.51-107.62,0.77l0.92,27.97
	h103.18l-6.88,88.05l-58.19,16.06l-58.29-16.51c-1.12-14.53-2.25-29.05-3.37-43.57c9.28-0.1,18.55-0.21,27.83-0.31
	c0.81,7.34,1.63,14.68,2.44,22.02c10.6,3.05,21.2,6.11,31.8,9.17c10.6-3.06,21.2-6.12,31.79-9.17c0.82-12.13,1.63-24.26,2.45-36.39
	c-32.41-0.3-64.82-0.61-97.22-0.91c-2.86-28.28-5.71-56.56-8.56-84.84h141.24C182.02,56.46,181.51,65.68,181,74.9z"/>
</svg>
