<?xml version="1.0" encoding="utf-8"?>
<!-- Generator: Adobe Illustrator 25.0.0, SVG Export Plug-In . SVG Version: 6.00 Build 0)  -->
<svg version="1.1" id="Layer_1" xmlns="http://www.w3.org/2000/svg" xmlns:xlink="http://www.w3.org/1999/xlink" x="0px" y="0px"
	 viewBox="0 0 256 256" style="enable-background:new 0 0 256 256;" xml:space="preserve">
<style type="text/css">
	.st0{fill:gray;}
</style>
<path class="st0" d="M0,0v256h256V0H0z M138.42,211.64c-0.34,1.34-1.82,6.93-5.27,11.7c-8.96,12.36-26.5,12.76-29.81,12.84
	c-4.47,0.1-12.76,0.18-21.4-5.05c-9.38-5.66-13.37-14.05-14.68-17.19c6.7-4.15,13.4-8.3,20.09-12.45c2.74,8.3,9.7,13.45,16.29,12.9
	c3.53-0.29,7.8-2.29,9.94-5.88c2.04-3.42,1.9-7.86,1.81-10.55c-0.02-0.83-0.08-1.52-0.13-1.99c-0.1-26.19-0.2-52.38-0.3-78.57h24.45
	v82.85C139.61,202.98,139.59,206.99,138.42,211.64z M230.52,221.96c-7.05,9.79-17.57,12.25-23.94,13.73
	c-3.76,0.88-16.78,3.72-31.4-2.72c-14.48-6.38-21.27-17.79-23.23-21.4c6.62-3.98,13.25-7.95,19.87-11.93
	c1.01,1.69,8.87,14.34,22.17,14.98c1.24,0.06,13.29,0.49,17.12-7.03c1.19-2.34,1.63-5.55,0.61-8.56
	c-1.61-4.73-5.92-6.13-22.87-14.15c-9.08-4.29-11.96-5.83-15.43-8.73c-1.83-1.53-5.69-4.8-8.69-9.61
	c-0.89-1.41-9.49-15.68-3.46-30.49c7.47-18.3,30.24-20.11,31.34-20.18c14.54-0.92,28.67,6.81,37,19.88
	c-6.32,3.92-12.64,7.84-18.96,11.77c-0.69-1.45-3.41-6.68-9.48-9.02c-0.65-0.26-9.65-3.59-14.67,1.53
	c-2.78,2.83-3.69,7.58-2.45,11.46c1.78,5.56,7.19,6.81,23.54,14.83c15.92,7.8,18.66,10.47,20.33,12.38
	c6.86,7.82,8.12,16.88,8.41,19.72C236.63,201.36,237.56,212.18,230.52,221.96z"/>
</svg>
