<?xml version="1.0" encoding="utf-8"?>
<!-- Generator: Adobe Illustrator 25.0.0, SVG Export Plug-In . SVG Version: 6.00 Build 0)  -->
<svg version="1.1" id="Layer_1" xmlns="http://www.w3.org/2000/svg" xmlns:xlink="http://www.w3.org/1999/xlink" x="0px" y="0px"
	 viewBox="0 0 184.51 249.01" style="enable-background:new 0 0 184.51 249.01;" xml:space="preserve">
<style type="text/css">
	.st0{fill:gray;}
</style>
<path class="st0" d="M92.34,134.33c-1.57,1.28-37.41-25.69-31.36-49.48c2.12-8.34,8.85-14.14,21.57-25.12
	C95,49,101.36,47.64,109.16,36.49c2.72-3.9,6.96-10.1,8.25-18.96c1.43-9.81-1.56-17.31-0.75-17.53c0.91-0.25,6.98,8.79,6.87,19.98
	c-0.18,18.1-16.45,32.56-22.51,37.93c-4.72,4.2-6.11,4.41-11.74,9.76c-5.31,5.04-13.41,12.74-16.2,19.57
	C65.19,106.54,93.82,133.12,92.34,134.33z"/>
<path class="st0" d="M101.21,143.8c-1.34-1.3,7.93-7.91,6.73-17.12c-0.79-6.02-5.28-7.25-10.09-16.2c-1.43-2.65-5.01-9.33-5.2-15.9
	c-0.54-18.95,27.25-34.27,41.58-39.75c5.74-2.19,12.82-4.14,13.15-3.36c0.36,0.86-7.91,4.16-16.51,10.09
	c-7.15,4.93-26.7,18.42-25.07,31.49c1.12,8.96,11.32,10.71,13.27,24.03c0.27,1.82,0.78,5.58-0.48,10.04
	C115.28,138.83,102.67,145.22,101.21,143.8z"/>
<path class="st0" d="M61.77,136.47c-0.1-0.37-2.17-0.07-3.67,0.15c-12.63,1.88-18.95,2.81-24.9,5.13c-5.92,2.3-13.29,5.17-13.05,8.1
	c0.22,2.6,6.33,4.31,15.03,5.84c14.72,2.59,30.59,3.59,63.59,1.41c6.48-0.43,18.25-1.28,32.41-5.81c3.96-1.27,11.06-3.76,10.85-4.59
	c-0.25-0.99-10.86,1.4-24.67,3.18c-18.76,2.42-32.91,2.38-42.28,2.32c-9.01-0.06-37.15-0.24-37.61-4.43
	C37.03,143.77,62.14,137.76,61.77,136.47z"/>
<path class="st0" d="M149.52,138.45c-0.21-0.77,6.13-4.91,13.92-4.56c6.88,0.31,16.54,4.21,19.25,12.81
	c2.4,7.62-2.02,14.6-3.52,16.97c-3.58,5.65-8.39,8.24-15.44,11.92c-9.53,4.97-18.51,7.15-18.81,6.42
	c-0.33-0.82,11.13-3.5,20.33-13.91c3.33-3.76,9.85-11.13,7.8-19.11c-1.7-6.6-8.27-9.73-8.71-9.94
	C157.15,135.76,149.74,139.27,149.52,138.45z"/>
<path class="st0" d="M124.6,171.01c0.92,0.9,2.33,2.13,4.23,3.32c3.25,2.02,5.2,2.17,5.25,2.8c0.08,0.99-4.51,2.72-23.92,6
	c-10.74,1.35-19.78,1.81-26.53,1.95c-6.76,0.14-10.37-0.06-17.58-0.46c0,0-6.7-0.37-17.12-2.91c-1.16-0.28-4.09-1.06-6.76-3.45
	c-1.23-1.1-2.23-1.99-2.42-3.25c-0.74-4.99,12.06-10.85,12.84-9.8c0.48,0.65-3.97,3.47-3.21,5.96c0.68,2.24,5.11,2.74,8.25,3.06
	c17.59,1.78,25.22,1.53,25.22,1.53c7.5-0.25,12.34-0.68,22.01-1.53c4.85-0.43,10.58-0.99,17.89-2.75
	C123.54,171.29,124.17,171.12,124.6,171.01z"/>
<path class="st0" d="M58.56,192.11c-0.79-1.05-10.84,2.5-11.03,7.6c-0.02,0.54,0,3.08,5.07,6.61c3.41,2.38,9.74,5.66,34.09,5.5
	c5.38-0.03,10.41-0.08,17.23-0.81c13.22-1.42,20.33-4.04,22.06-4.69c2.14-0.81,3.87-1.59,5.04-2.14c-4.59-2.39-9.17-4.79-13.76-7.18
	c-1.47,0.3-3.61,0.74-6.2,1.22c-1.42,0.26-7.46,1.39-11.69,1.96c-7.81,1.05-7.39-0.08-24.45,0.34c-0.2,0-4.65,0.11-10.4-0.92
	c-6.36-1.14-7.39-2.44-7.63-3.33C56.38,194.37,59,192.69,58.56,192.11z"/>
<path class="st0" d="M40.06,211.22c-0.02-0.39-11.27-2.14-23.85,2.14c-1.89,0.64-16.71,5.81-16.2,10.85
	c0.3,3.01,5.96,5.1,17.58,7.49c23.62,4.85,45.76,5.56,70.17,4.74c4.8-0.16,13.8-0.82,31.8-2.14c5.17-0.38,13.67-1.03,24.4-3.17
	c4.7-0.94,7-1.6,8-1.9c2.81-0.83,20.57-6.11,20.34-12.21c-0.1-2.68-3.68-5.06-4.13-4.74c-0.37,0.26,1.47,2.26,1.38,3.97
	c-0.37,6.52-28.68,9.95-37.76,11.01c-5.33,0.62-20.9,2.31-43.26,2.48c-16.35,0.12-10.6-0.76-32.26-0.96
	c-4.37-0.04-15.79-0.1-29.81-3.67c-8.15-2.07-10.66-3.67-10.7-5.2c-0.06-2.45,6.24-4.57,9.94-5.81
	C34.03,211.32,40.08,211.51,40.06,211.22z"/>
<path class="st0" d="M33.8,241.18c8.46,1.02,20.26,2.19,34.39,2.75c29.76,1.18,49.85-1.15,66.96-3.21c0,0,33.8-4.07,44.16-13.02
	c0.61-0.53,4.31-3.81,5.07-3.18c0.7,0.59-1.48,4.25-1.91,4.97c-7.55,12.67-45.01,17.03-50.67,17.65
	c-14.15,1.56-25.03,1.73-32.87,1.83c-13.37,0.18-22.38-0.4-30.87-0.97c-7.59-0.51-11.4-0.97-15.31-1.67
	C44.74,244.9,38.28,242.84,33.8,241.18z"/>
</svg>
