<?xml version="1.0" encoding="utf-8"?>
<!-- Generator: Adobe Illustrator 25.0.0, SVG Export Plug-In . SVG Version: 6.00 Build 0)  -->
<svg version="1.1"
	 id="Layer_1" xmlns:cc="http://creativecommons.org/ns#" xmlns:dc="http://purl.org/dc/elements/1.1/" xmlns:rdf="http://www.w3.org/1999/02/22-rdf-syntax-ns#"
	 xmlns="http://www.w3.org/2000/svg" xmlns:xlink="http://www.w3.org/1999/xlink" x="0px" y="0px" viewBox="0 0 256.66 302.03"
	 style="enable-background:new 0 0 256.66 302.03;" xml:space="preserve">
<style type="text/css">
	.st0{fill:gray;}
</style>
<g transform="translate(-3.3359375,285.2793)">
	<path class="st0" d="M127.1-211.48c0,1-1,1-1,1h-1c-1,0-1-1-2-2c0,0-1-1-1-2s0-1,1-1l2,1C126.1-213.48,127.1-212.48,127.1-211.48 M109.1-221.48
		c0-5-2-8-5-8c0,0,0,1-1,1v2h3c0,2,1,3,1,5H109.1 M144.1-226.48c2,0,3,2,4,5h2c-1-1-1-2-1-3s0-2-1-3s-2-2-3-2c0,0-1,1-2,1
		C143.1-227.48,144.1-227.48,144.1-226.48 M114.1-210.48c-1,0-1,0-1-1s0-2,1-3c2,0,3-1,3-1c1,0,1,1,1,1c0,1-1,2-3,4H114.1
		 M103.1-211.48c-4-2-5-5-5-10c0-3,0-5,2-7c1-2,3-3,5-3s3,1,5,3c1,3,2,6,2,9v1v1h1v-1c1,0,1-2,1-6c0-3,0-6-2-9s-4-5-8-5
		c-3,0-6,2-7,5c-2,4-2.4,7-2.4,12c0,4,1.4,8,5.4,12C101.1-210.48,102.1-210.48,103.1-211.48 M228.1-70.48c1,0,1-0.4,1-1.3
		c0-2.2-1-4.8-4-7.7c-3-3-8-4.9-14-5.7c-1-0.1-2-0.1-2-0.1c-1-0.2-1-0.2-2-0.2c-1-0.1-3-0.3-4-0.5c3-9.3,4-17.5,4-24.7
		c0-10-2-17-6-23s-8-9-13-10c-1,1-1,1-1,2c5,2,10,6,13,12c3,7,4,13,4,20c0,5.6-1,13.9-5,24.5c-4,1.6-8,5.3-11,11.1
		c0,0.9,0,1.4,1,1.4c0,0,1-0.9,2-2.6c2-1.7,3-3.4,5-5.1c3-1.7,5-2.6,8-2.6c5,0,10,0.7,13,2.1c4,1.3,6,2.7,7,4.3c1,1.5,2,2.9,3,4.2
		C227.1-71.08,228.1-70.48,228.1-70.48 M136.1-215.48c-1-1-1-3-1-5c0-4,0-6,2-9c2-2,4-3,6-3c3,0,5,2,7,4c1,3,2,5,2,8c0,5-2,8-6,9
		c0,0,1,1,2,1c2,0,3,1,5,2c1-6,2-10,2-15c0-6-1-10-3-13c-3-3-6-4-10-4c-3,0-6,1-9,3c-2,3-3,5-3,8c0,5,1,9,3,13
		C134.1-216.48,135.1-215.48,136.1-215.48 M148.1-199.48c-13,9-23,13-31,13c-7,0-14-3-20-8c1,2,2,4,3,5l6,6c4,4,9,6,14,6
		c7,0,15-4,25-11l9-6c2-2,4-4,4-7c0-1,0-2-1-2c-1-2-6-5-16-8c-9-4-16-6-20-6c-3,0-8,2-15,6c-6,4-10,8-10,12c0,0,1,1,2,3
		c6,5,12,8,18,8c8,0,18-4,31-14v2C148.1-200.48,148.1-199.48,148.1-199.48 M171.1,2.52c4,7.52,11,11.3,19,11.3c2,0,4-0.3,6-0.9
		c2-0.4,4-1.1,5-1.9c1-0.7,2-1.4,3-2.2c2-0.7,2-1.2,3-1.7l17-14.7c4-3.19,8-5.98,13-8.4c4-2.4,8-4,10-4.9c3-0.8,5-2,7-3.6
		c1-1.5,2-3.4,2-5.8c0-2.9-2-5.1-4-6.7s-4-2.7-6-3.4s-4-2.3-7-5c-2-2.6-4-6.2-5-10.9l-1-5.8c-1-2.7-1-4.7-2-5.8c0-0.3,0-0.4-1-0.4
		s-3,0.9-4,2.6c-2,1.7-4,3.6-6,5.6c-1,2-4,3.8-6,5.5c-3,1.7-6,2.6-8,2.6c-8,0-12-2.2-15-6.5c-2-3.2-3-6.9-4-11.1c-2-1.7-3-2.6-5-2.6
		c-5,0-7,5.2-7,15.7v3.3v11.6v8.9v4.3v3c0,0.9-1,2.9-1,6c-1,3.1-1,6.62-1,10.6l-2,11.1v0.17 M26.1-2.8c9.3,1.36,20,4.27,32.1,8.71
		c12.1,4.4,19.5,6.7,22.2,6.7c7,0,12.8-3.1,17.6-9.09c1-1.94,1-4.22,1-6.84c0-9.45-5.7-21.4-17.1-35.9l-6.8-9.1
		c-1.4-1.9-3.1-4.8-5.3-8.7c-2.1-3.9-4-6.9-5.5-9c-1.3-2.3-3.4-4.6-6.1-6.9c-2.6-2.3-5.6-3.8-8.9-4.6c-4.2,0.8-7.1,2.2-8.5,4.1
		s-2.2,4-2.4,6.2c-0.3,2.1-0.9,3.5-1.9,4.2c-1,0.6-2.7,1.1-5,1.6c-0.5,0-1.4,0-2.7,0.1h-2.7c-5.3,0-8.9,0.6-10.8,1.6
		c-2.5,2.9-3.8,6.2-3.8,9.7c0,1.6,0.4,4.3,1.2,8.1c0.8,3.7,1.2,6.7,1.2,8.8c0,4.1-1.2,8.2-3.7,12.3c-2.5,4.3-3.8,7.5-3.8,9.78
		c1,3.88,7.6,6.61,19.7,8.21 M59.4-93.73c0-6.9,1.8-14.5,5.5-23.5c3.6-9,7.2-15,10.7-19c-0.2-1-0.7-1-1.5-1l-1-1
		c-2.9,3-6.4,10-10.6,20c-4.2,9-6.4,17.3-6.4,23.4c0,4.5,1.1,8.4,3.1,11.8c2.2,3.3,7.5,8.1,15.9,14.2l10.6,6.9
		c11.3,9.8,17.3,16.6,17.3,20.6c0,2.1-1,4.2-4,6.5c-2,2.4-4.7,3.6-7,3.6c-0.2,0-0.3,0.2-0.3,0.7c0,0.1,1,2.1,3.1,6
		c4.2,5.7,13.2,8.5,25.2,8.5c22,0,39-9,52-27c0-5,0-8.1-1-9.4v-3.7c0-6.5,1-11.4,3-14.6s4-4.7,7-4.7c2,0,4,0.7,6,2.2
		c1-7.7,1-14.4,1-20.4c0-9.1,0-16.6-2-23.6c-1-6-3-11-5-15c-2-3-4-6-6-9s-3-6-5-9c-1-4-2-7-2-12c-3-5-5-10-8-15c-2-5-4-10-6-14l-9,7
		c-10,7-18,10-25,10c-6,0-11-1-14-5l-6-5c0,3-1,7-3,11l-6.3,12c-2.8,7-4.3,11-4.6,14c-0.4,2-0.7,4-0.9,4l-7.5,15
		c-8.1,15-12.2,28.9-12.2,40.4c0,2.3,0.2,4.7,0.6,7.1C61.6-83.83,59.4-88.13,59.4-93.73 M131,0.87c-13,0-23,1.76-30,5.25v-0.3
		c-5,6-10.6,9.1-18.4,9.1c-4.9,0-12.6-1.9-23-5.7c-10.5-3.6-19.8-6.36-27.9-8.18c-0.8-0.23-2.6-0.57-5.5-1.03
		c-2.8-0.45-5.4-0.91-7.7-1.37c-2.1-0.45-4.5-1.13-7.1-2.05c-2.5-0.79-4.5-1.82-6-3.07c-1.38-1.26-2.06-2.68-2.06-4.27
		c0-1.6,0.34-3.31,1.02-5.13c0.64-1.1,1.34-2.2,2.04-3.2c0.7-1.1,1.3-2.1,1.7-3.1c0.6-0.9,1-1.8,1.4-2.8c0.4-0.9,0.8-1.8,1-2.9
		c0.2-1,0.4-2,0.4-3s-0.4-4-1.2-9.3c-0.8-5.2-1.2-8.5-1.2-9.9c0-4.4,1-7.9,3.2-10.4s4.3-3.8,6.5-3.8h11.5c0.9,0,2.3-0.5,4.4-1.7
		c0.7-1.6,1.3-2.9,1.7-4.1c0.5-1.2,0.7-2.1,0.9-2.5c0.2-0.6,0.4-1.2,0.6-1.7c0.4-0.7,0.9-1.5,1.6-2.3c-0.8-1-1.2-2.3-1.2-3.9
		c0-1.1,0-2.1,0.2-2.7c0-3.6,1.7-8.7,5.3-15.4l3.5-6.3c2.9-5.4,5.1-9.4,6.7-13.4c1.7-4,3.5-10,5.5-18c1.6-7,5.4-14,11.4-21l7.5-9
		c5.2-6,8.6-11,10.5-15s2.9-9,2.9-13c0-2-0.5-8-1.6-18c-1-10-1.5-20-1.5-29c0-7,0.6-12,1.9-17c1.3-5,3.6-10,7-14c3-4,7-8,13-10
		s13-3,21-3c3,0,6,0,9,1c3,0,7,1,12,3c4,2,8,4,11,7c4,3,7,8,10,13c2,6,4,12,5,20c1,5,1,10,2,17c0,6,1,10,1,13c1,3,1,7,2,12
		c1,4,2,8,4,11c2,4,4,8,7,12c3,5,7,10,11,16c9,10,16,21,20,32c5,10,8,23,8,36.9c0,6.9-1,13.6-3,20.1c2,0,3,0.8,4,2.2
		c1,1.4,2,4.4,3,9.1l1,7.4c1,2.2,2,4.3,5,6.1c2,1.8,4,3.3,7,4.5c2,1,5,2.4,7,4.2c2,2,3,4.1,3,6.3c0,3.4-1,5.9-3,7.7
		c-2,2-4,3.4-7,4.3c-2,1-6,3-12,5.82c-5,2.96-10,6.55-15,10.8l-10,8.51c-4,3.9-8,6.7-11,8.4c-3,1.8-7,2.7-11,2.7l-7-0.8
		c-8-2.1-13-6.1-16-12.2c-16-1.94-29-2.9-37-2.9"/>
</g>
</svg>
