<?xml version="1.0" encoding="utf-8"?>
<!-- Generator: Adobe Illustrator 25.0.0, SVG Export Plug-In . SVG Version: 6.00 Build 0)  -->
<svg version="1.1" id="Layer_1" xmlns="http://www.w3.org/2000/svg" xmlns:xlink="http://www.w3.org/1999/xlink" x="0px" y="0px"
	 viewBox="0 0 256 140.22" style="enable-background:new 0 0 256 140.22;" xml:space="preserve">
<style type="text/css">
	.st0{fill:gray;}
</style>
<g>
	<path class="st0" d="M77.73,53.78c-4.2-0.08-8.41-0.15-12.61-0.23c-1.22,7.41-2.44,14.83-3.67,22.24c4.77-0.08,9.54-0.17,14.3-0.26
		c1.06-0.28,7.64-2.16,10.23-8.33c0.64-1.51,2.44-5.8,0.01-9.52C83.37,53.67,78.09,53.77,77.73,53.78z"/>
	<path class="st0" d="M128,0C57.31,0,0,31.39,0,70.11s57.31,70.11,128,70.11s128-31.39,128-70.11S198.69,0,128,0z M95.39,76.94
		C88.8,85,78.74,85.38,77.04,85.42c-5.65-0.07-11.31-0.15-16.96-0.23l-3.21,16.28H43.34c3.36-19.26,6.72-38.52,10.09-57.78
		c9.17-0.14,18.35-0.28,27.52-0.41c1.51-0.01,10.5,0.07,16.04,6.83C103.45,57.98,101.14,69.9,95.39,76.94z M150.19,85.19
		c-4.81,0.16-9.63,0.31-14.44,0.46c1.9-7.83,3.8-15.66,5.71-23.49c0.18-0.71,0.39-1.97,0.08-3.47c-0.17-0.81-0.46-2.19-1.67-3.33
		c-1.18-1.11-2.55-1.36-3.13-1.43c-5.07,0.03-10.14,0.05-15.21,0.08c-2.07,10.32-4.13,20.64-6.19,30.95
		c-4.51,0.08-9.02,0.16-13.53,0.23c4.28-21.09,8.56-42.19,12.84-63.28h14.45c-1.46,7.33-2.91,14.67-4.36,22.01
		c6.42-0.08,12.84-0.15,19.26-0.23c6.57,1.06,9.17,3.92,10.21,5.4c1.41,2.01,2.7,5.39-0.58,21.66
		C152.4,76.84,151.12,81.82,150.19,85.19z M207.29,76.94c-6.59,8.06-16.65,8.44-18.35,8.48c-5.65-0.07-11.31-0.15-16.96-0.23
		l-3.21,16.28h-13.53c3.36-19.26,6.72-38.52,10.09-57.78c9.17-0.14,18.35-0.28,27.52-0.41c1.51-0.01,10.5,0.07,16.04,6.83
		C215.35,57.98,213.04,69.9,207.29,76.94z"/>
	<path class="st0" d="M189.63,53.78c-4.2-0.08-8.41-0.15-12.61-0.23c-1.22,7.41-2.44,14.83-3.67,22.24
		c4.77-0.08,9.54-0.17,14.3-0.26c1.06-0.28,7.64-2.16,10.23-8.33c0.64-1.51,2.44-5.8,0.01-9.52
		C195.27,53.67,189.99,53.77,189.63,53.78z"/>
</g>
</svg>
