<?xml version="1.0" encoding="utf-8"?>
<!-- Generator: Adobe Illustrator 25.0.0, SVG Export Plug-In . SVG Version: 6.00 Build 0)  -->
<svg version="1.1"
	 id="Layer_1" xmlns:dc="http://purl.org/dc/elements/1.1/" xmlns:rdf="http://www.w3.org/1999/02/22-rdf-syntax-ns#"
	 xmlns="http://www.w3.org/2000/svg" xmlns:xlink="http://www.w3.org/1999/xlink" x="0px" y="0px" viewBox="0 0 111.17 112.38"
	 style="enable-background:new 0 0 111.17 112.38;" xml:space="preserve">
<style type="text/css">
	.st0{fill:gray;}
</style>
<g>
	<path class="st0" d="M42.11,54.18h26.78c7.46,0,13.41-6.14,13.41-13.62V15.03c0-7.27-6.13-12.72-13.41-13.94
		C64.28,0.33,59.5-0.02,54.92,0l0,0c-4.58,0.02-8.96,0.41-12.81,1.09C30.76,3.1,28.7,7.3,28.7,15.04v10.22h26.81v3.41H28.7H18.64
		c-7.79,0-14.62,4.68-16.75,13.59c-2.46,10.21-2.57,16.59,0,27.25c1.91,7.94,6.46,13.59,14.25,13.59h9.22V70.84
		C25.36,61.99,33.01,54.18,42.11,54.18z M40.42,18.44c-2.78,0-5.03-2.28-5.03-5.09c0-2.83,2.25-5.12,5.03-5.12
		c2.77,0,5.03,2.3,5.03,5.12C45.45,16.16,43.19,18.44,40.42,18.44z"/>
	<path class="st0" d="M109.12,42.25c-1.93-7.76-5.6-13.59-13.41-13.59H85.65l-0.01,0v11.91c0,9.23-7.83,17-16.75,17H42.11
		c-7.34,0-13.41,6.28-13.41,13.62v25.53c0,7.27,6.32,11.54,13.41,13.62c8.49,2.5,16.63,2.95,26.78,0
		c6.75-1.95,13.41-5.89,13.41-13.62V86.5H55.52v-3.41H82.3h13.41c7.79,0,10.7-5.43,13.41-13.59
		C111.92,61.1,111.8,53.02,109.12,42.25z M70.58,93.32c2.78,0,5.03,2.28,5.03,5.09c0,2.83-2.25,5.12-5.03,5.12
		c-2.77,0-5.03-2.3-5.03-5.12C65.55,95.59,67.81,93.32,70.58,93.32z"/>
</g>
</svg>
