<?xml version="1.0" encoding="utf-8"?>
<!-- Generator: Adobe Illustrator 25.0.0, SVG Export Plug-In . SVG Version: 6.00 Build 0)  -->
<svg version="1.1" id="Layer_1" xmlns="http://www.w3.org/2000/svg" xmlns:xlink="http://www.w3.org/1999/xlink" x="0px" y="0px"
	 viewBox="0 0 600 242.6" style="enable-background:new 0 0 600 242.6;" xml:space="preserve">
<style type="text/css">
	.st0{fill:gray;}
</style>
<g>
	<path class="st0" d="M114.1,76.2H62.4c-7.8,0-14.1-5.9-14.1-13.6v-0.2c0-7.7,6.3-13.6,14.1-13.6h100.5V0h-108
		C24.6,0-0.1,24.9,0,57.8v9.4c-0.1,33,24.6,57.8,54.9,57.8h51.7c7.8,0,14.1,5.9,14.1,13.6v0.2h0.1c0,7.7-6.3,13.6-14.1,13.6H9.5
		v48.8h104.7c30.3,0,55-24.9,54.9-57.8V134C169.2,101,144.4,76.2,114.1,76.2z"/>
	<path class="st0" d="M524.5,152.5c-13.7,0-24.7-11.1-24.7-24.7V0h-49.4v140.3c0,34,29.8,61,63.3,61H600v-48.8H524.5z"/>
	<path class="st0" d="M423,140.2V61c0-34-29.8-61-63.3-61H253.4c-33.6,0-63.3,27-63.3,61v79.2c0,34.1,29.8,61,63.3,61h68.2
		l-30.9-48.7h-26.6c-13.6,0-24.7-11-24.7-24.7V73.4c0-13.6,11-24.7,24.7-24.7H349c13.6,0,24.7,11,24.7,24.7v54.4
		c0,13.6-11,24.7-24.7,24.7h-37.5l57.1,90.1h58.5L394.4,191C411.3,180.1,423,161.6,423,140.2z"/>
</g>
</svg>
